<svg width="36" height="36" viewBox="0 0 36 36" fill="none" xmlns="http://www.w3.org/2000/svg">
<path d="M32.1232 7.31535C31.6123 6.61413 31.0512 5.95098 30.4442 5.3311C30.4011 5.28766 30.3602 5.2445 30.317 5.20106C28.3985 3.28049 26.0655 1.8251 23.497 0.946704V24.2445C23.497 25.0255 23.3432 25.7988 23.0444 26.5203C22.7456 27.2418 22.3076 27.8974 21.7554 28.4496C21.2032 29.002 20.5477 29.44 19.8262 29.7388C19.1047 30.0375 18.3314 30.1914 17.5505 30.1914H14.0057V35.124C15.2396 35.3872 16.4977 35.52 17.7593 35.52C21.0353 35.5203 24.2476 34.6145 27.0408 32.9026C29.8341 31.1908 32.0993 28.7394 33.586 25.8201C35.0727 22.9006 35.7229 19.6268 35.4648 16.3608C35.2067 13.0947 34.0501 9.96379 32.1232 7.31423V7.31535Z" fill="#2A2C2F"/>
<path d="M17.7593 2.94663e-09C14.4834 0.000311975 11.2714 0.906686 8.47848 2.61889C5.6856 4.3311 3.42062 6.78243 1.93404 9.7018C0.447464 12.6212 -0.202801 15.8948 0.0551579 19.1608C0.313116 22.4267 1.46925 25.5577 3.39571 28.2074C3.90774 28.9084 4.46968 29.5715 5.07717 30.1914C5.11892 30.2334 5.15984 30.2755 5.20159 30.3203C7.11977 32.2407 9.45201 33.6963 12.0196 34.5758V11.2757C12.0203 9.6986 12.6472 8.18628 13.7626 7.07132C14.878 5.95636 16.3905 5.33 17.9675 5.33H21.5123V0.39741C20.2788 0.133186 19.0208 -2.2876e-05 17.7593 2.94663e-09Z" fill="#2A2C2F"/>
</svg>
