<svg width="100" height="100" viewBox="0 0 100 100" fill="none" xmlns="http://www.w3.org/2000/svg">
<path d="M69.4097 35.8856C68.7193 34.938 67.9611 34.0419 67.1409 33.2042C67.0825 33.1455 67.0272 33.0872 66.9689 33.0285C64.3763 30.4331 61.2236 28.4664 57.7527 27.2793V58.7629C57.7527 59.8182 57.5449 60.8633 57.1411 61.8383C56.7373 62.8133 56.1454 63.6992 55.3992 64.4454C54.653 65.1919 53.7671 65.7838 52.7921 66.1875C51.8172 66.5913 50.7722 66.7992 49.7169 66.7992H44.9267V73.4649C46.594 73.8205 48.2942 74 49.9991 74C54.4261 74.0004 58.767 72.7763 62.5417 70.463C66.3164 68.1497 69.3775 64.837 71.3865 60.892C73.3956 56.9468 74.2742 52.5227 73.9254 48.1092C73.5766 43.6956 72.0137 39.4646 69.4097 35.8841V35.8856Z" fill="#1E293B"/>
<path d="M49.999 26C45.5721 26.0004 41.2316 27.2253 37.4574 29.539C33.6832 31.8528 30.6225 35.1654 28.6136 39.1105C26.6047 43.0556 25.7259 47.4795 26.0745 51.8929C26.4231 56.3064 27.9855 60.5374 30.5888 64.1181C31.2807 65.0654 32.0401 65.9614 32.861 66.7992C32.9175 66.856 32.9728 66.9128 33.0292 66.9734C35.6213 69.5685 38.773 71.5356 42.2427 72.7241V41.2375C42.2436 39.1062 43.0909 37.0625 44.5981 35.5558C46.1054 34.0491 48.1493 33.2027 50.2804 33.2027H55.0707V26.537C53.4038 26.18 51.7038 26 49.999 26Z" fill="#1E293B"/>
</svg>
