<svg width="184" height="36" viewBox="0 0 184 36" fill="none" xmlns="http://www.w3.org/2000/svg">
<path d="M32.1232 7.31535C31.6123 6.61413 31.0512 5.95098 30.4442 5.3311C30.4011 5.28766 30.3602 5.2445 30.317 5.20106C28.3985 3.28049 26.0655 1.8251 23.497 0.946704V24.2445C23.497 25.0255 23.3432 25.7988 23.0444 26.5203C22.7456 27.2418 22.3076 27.8974 21.7554 28.4496C21.2032 29.002 20.5477 29.44 19.8262 29.7388C19.1047 30.0375 18.3314 30.1914 17.5505 30.1914H14.0057V35.124C15.2396 35.3872 16.4977 35.52 17.7593 35.52C21.0353 35.5203 24.2476 34.6145 27.0408 32.9026C29.8341 31.1908 32.0993 28.7394 33.586 25.8201C35.0727 22.9006 35.7229 19.6268 35.4648 16.3608C35.2067 13.0948 34.0501 9.96379 32.1232 7.31423V7.31535Z" fill="white"/>
<path d="M17.7593 2.94654e-09C14.4834 0.000311975 11.2714 0.906686 8.47848 2.61889C5.6856 4.3311 3.42062 6.78243 1.93404 9.7018C0.447464 12.6212 -0.202801 15.8948 0.0551579 19.1608C0.313116 22.4267 1.46925 25.5577 3.39571 28.2074C3.90774 28.9084 4.46968 29.5715 5.07717 30.1914C5.11892 30.2334 5.15984 30.2755 5.20159 30.3203C7.11977 32.2407 9.45201 33.6963 12.0196 34.5758V11.2757C12.0203 9.6986 12.6472 8.18628 13.7626 7.07132C14.878 5.95636 16.3905 5.33 17.9675 5.33H21.5123V0.39741C20.2788 0.133186 19.0208 -2.2876e-05 17.7593 2.94654e-09Z" fill="white"/>
<path d="M57.4844 30H53.0156V12.0781H46.2812V7.59375H64.2031V12.0781H57.4844V30Z" fill="white"/>
<path d="M80.3581 21.0469V16.5625C80.3581 15.9479 80.2383 15.3698 79.9987 14.8281C79.7696 14.276 79.4519 13.7969 79.0456 13.3906C78.6394 12.9844 78.1602 12.6667 77.6081 12.4375C77.0665 12.1979 76.4883 12.0781 75.8737 12.0781C75.2592 12.0781 74.6758 12.1979 74.1237 12.4375C73.5821 12.6667 73.1081 12.9844 72.7019 13.3906C72.2956 13.7969 71.9727 14.276 71.7331 14.8281C71.504 15.3698 71.3894 15.9479 71.3894 16.5625V21.0469H80.3581ZM84.8425 30H80.3581V25.5156H71.3894V30H66.9206V16.5625C66.9206 15.3229 67.155 14.1615 67.6237 13.0781C68.0925 11.9844 68.7279 11.0312 69.53 10.2188C70.3425 9.40625 71.2904 8.76562 72.3737 8.29688C73.4675 7.82812 74.6342 7.59375 75.8737 7.59375C77.1133 7.59375 78.2748 7.82812 79.3581 8.29688C80.4519 8.76562 81.405 9.40625 82.2175 10.2188C83.03 11.0312 83.6706 11.9844 84.1394 13.0781C84.6081 14.1615 84.8425 15.3229 84.8425 16.5625V30Z" fill="white"/>
<path d="M94.4975 30H90.0131V7.59375H94.4975V18.7969L102.841 7.59375H107.935L100.857 17.0469L107.935 30H102.841L97.9194 20.9375L94.4975 25.5156V30Z" fill="white"/>
<path d="M128.965 21.0469C128.965 22.2865 128.731 23.4531 128.262 24.5469C127.793 25.6302 127.152 26.5781 126.34 27.3906C125.527 28.1927 124.574 28.8281 123.481 29.2969C122.397 29.7656 121.236 30 119.996 30C118.757 30 117.59 29.7656 116.496 29.2969C115.413 28.8281 114.465 28.1927 113.652 27.3906C112.85 26.5781 112.215 25.6302 111.746 24.5469C111.277 23.4531 111.043 22.2865 111.043 21.0469V7.59375H115.512V21.0469C115.512 21.6615 115.626 22.2396 115.856 22.7812C116.095 23.3229 116.418 23.7969 116.824 24.2031C117.231 24.6094 117.705 24.9323 118.246 25.1719C118.798 25.401 119.382 25.5156 119.996 25.5156C120.611 25.5156 121.189 25.401 121.731 25.1719C122.283 24.9323 122.762 24.6094 123.168 24.2031C123.574 23.7969 123.892 23.3229 124.121 22.7812C124.361 22.2396 124.481 21.6615 124.481 21.0469V7.59375H128.965V21.0469Z" fill="white"/>
<path d="M156.37 30H151.901V14C151.901 13.6875 151.839 13.3958 151.714 13.125C151.599 12.8542 151.438 12.6198 151.229 12.4219C151.031 12.2135 150.797 12.0521 150.526 11.9375C150.255 11.8229 149.964 11.7656 149.651 11.7656C149.339 11.7656 149.047 11.8229 148.776 11.9375C148.505 12.0521 148.266 12.2135 148.057 12.4219C147.86 12.6198 147.703 12.8542 147.589 13.125C147.474 13.3958 147.417 13.6875 147.417 14V30H142.932V14C142.932 13.6875 142.875 13.3958 142.761 13.125C142.646 12.8542 142.485 12.6198 142.276 12.4219C142.078 12.2135 141.844 12.0521 141.573 11.9375C141.302 11.8229 141.011 11.7656 140.698 11.7656C140.386 11.7656 140.094 11.8229 139.823 11.9375C139.552 12.0521 139.313 12.2135 139.104 12.4219C138.906 12.6198 138.75 12.8542 138.636 13.125C138.521 13.3958 138.464 13.6875 138.464 14V30H133.979V14C133.979 13.0729 134.151 12.2031 134.495 11.3906C134.849 10.5677 135.328 9.85417 135.932 9.25C136.547 8.63542 137.261 8.15625 138.073 7.8125C138.896 7.45833 139.771 7.28125 140.698 7.28125C141.531 7.28125 142.334 7.43229 143.104 7.73438C143.875 8.02604 144.568 8.45312 145.182 9.01562C145.797 8.45312 146.485 8.02604 147.245 7.73438C148.016 7.43229 148.818 7.28125 149.651 7.28125C150.578 7.28125 151.448 7.45833 152.261 7.8125C153.084 8.15625 153.797 8.63542 154.401 9.25C155.016 9.85417 155.495 10.5677 155.839 11.3906C156.193 12.2031 156.37 13.0729 156.37 14V30Z" fill="white"/>
<path d="M183.619 18.8906C183.619 19.9531 183.478 20.9792 183.197 21.9688C182.926 22.9479 182.541 23.8698 182.041 24.7344C181.541 25.5885 180.936 26.3698 180.228 27.0781C179.52 27.7865 178.739 28.3958 177.884 28.9062C177.03 29.4062 176.108 29.7917 175.119 30.0625C174.129 30.3438 173.103 30.4844 172.041 30.4844C170.978 30.4844 169.952 30.3438 168.962 30.0625C167.983 29.7917 167.061 29.4062 166.197 28.9062C165.343 28.3958 164.561 27.7865 163.853 27.0781C163.145 26.3698 162.535 25.5885 162.025 24.7344C161.525 23.8698 161.134 22.9479 160.853 21.9688C160.582 20.9792 160.447 19.9531 160.447 18.8906C160.447 17.8281 160.582 16.8021 160.853 15.8125C161.134 14.8229 161.525 13.901 162.025 13.0469C162.535 12.1927 163.145 11.4115 163.853 10.7031C164.561 9.99479 165.343 9.39062 166.197 8.89062C167.061 8.39062 167.983 8.00521 168.962 7.73438C169.952 7.45312 170.978 7.3125 172.041 7.3125C173.103 7.3125 174.129 7.45312 175.119 7.73438C176.108 8.00521 177.03 8.39062 177.884 8.89062C178.739 9.39062 179.52 9.99479 180.228 10.7031C180.936 11.4115 181.541 12.1927 182.041 13.0469C182.541 13.901 182.926 14.8229 183.197 15.8125C183.478 16.8021 183.619 17.8281 183.619 18.8906ZM179.166 18.8906C179.166 17.9115 178.978 16.9896 178.603 16.125C178.228 15.25 177.718 14.4948 177.072 13.8594C176.436 13.2135 175.681 12.7031 174.806 12.3281C173.942 11.9531 173.02 11.7656 172.041 11.7656C171.051 11.7656 170.124 11.9531 169.259 12.3281C168.395 12.7031 167.64 13.2135 166.994 13.8594C166.348 14.4948 165.837 15.25 165.462 16.125C165.087 16.9896 164.9 17.9115 164.9 18.8906C164.9 19.8698 165.087 20.7917 165.462 21.6562C165.837 22.5104 166.348 23.2604 166.994 23.9062C167.64 24.5521 168.395 25.0625 169.259 25.4375C170.124 25.8125 171.051 26 172.041 26C173.02 26 173.942 25.8125 174.806 25.4375C175.681 25.0625 176.436 24.5521 177.072 23.9062C177.718 23.2604 178.228 22.5104 178.603 21.6562C178.978 20.7917 179.166 19.8698 179.166 18.8906Z" fill="white"/>
</svg>
